<svg width="1000" height="1000" viewBox="0 0 1000 1000" fill="none" xmlns="http://www.w3.org/2000/svg">
<rect width="1000" height="1000" fill="white"/>
<g clip-path="url(#clip0_84_2081)">
<path d="M220.387 808.904L150.41 932.348L80.6296 808.904H220.387Z" fill="white"/>
<path d="M290.359 685.264L220.383 808.904L150.406 685.264H290.359Z" fill="white"/>
<path d="M10.6519 932.348L80.6285 808.904L150.409 932.348H10.6519Z" fill="#2BA5EB"/>
<path d="M150.406 932.348L220.383 808.904L290.359 932.348H150.406Z" fill="#2BA5EB"/>
<path d="M290.362 932.348L360.142 808.904L430.119 932.348H290.362Z" fill="#2BA5EB"/>
<path d="M430.116 932.348L500.093 808.904L569.873 932.348H430.116Z" fill="#2BA5EB"/>
<path d="M569.884 932.348L639.861 808.904L709.837 932.348H569.884Z" fill="#2BA5EB"/>
<path d="M709.83 932.348L779.61 808.904L849.587 932.348H709.83Z" fill="#2BA5EB"/>
<path d="M849.591 932.348L919.568 808.904L989.348 932.348H849.591Z" fill="#2BA5EB"/>
<path d="M919.563 808.904L849.586 932.348L779.61 808.904H919.563Z" fill="white"/>
<path d="M709.837 685.264L639.861 808.904L569.884 685.264H709.837Z" fill="#DAE378"/>
<path d="M569.873 685.264L500.093 808.904L430.116 685.264H569.873Z" fill="#DAE378"/>
<path d="M430.119 685.264L360.142 808.904L290.362 685.264H430.119Z" fill="#DAE378"/>
<path d="M639.851 561.82L569.875 685.264L500.094 561.82H639.851Z" fill="#DAE378"/>
<path d="M500.098 561.82L430.122 685.264L360.145 561.82H500.098Z" fill="#DAE378"/>
<path d="M569.873 438.18L500.093 561.82L430.116 438.18H569.873Z" fill="#DAE378"/>
<path d="M779.609 808.904L709.829 932.348L639.852 808.904H779.609Z" fill="white"/>
<path d="M639.851 808.904L569.875 932.348L500.094 808.904H639.851Z" fill="white"/>
<path d="M500.098 808.904L430.122 932.348L360.145 808.904H500.098Z" fill="white"/>
<path d="M360.138 808.904L290.358 932.348L220.381 808.904H360.138Z" fill="white"/>
<path d="M80.6296 808.904L150.41 685.264L220.387 808.904H80.6296Z" fill="#2BA5EB"/>
<path d="M360.138 561.82L290.358 685.264L220.381 561.82H360.138Z" fill="white"/>
<g opacity="0.4">
<g opacity="0.4">
<path opacity="0.4" d="M220.383 808.905L290.36 685.265L360.141 808.905H220.383Z" fill="#C7B7D9"/>
</g>
</g>
<g opacity="0.4">
<g opacity="0.4">
<path opacity="0.4" d="M360.155 808.905L430.131 685.264L500.108 808.905H360.155Z" fill="#C7B7D9"/>
</g>
</g>
<g opacity="0.4">
<g opacity="0.4">
<path opacity="0.4" d="M500.095 808.904L569.875 685.264L639.852 808.904H500.095Z" fill="#C7B7D9"/>
</g>
</g>
<g opacity="0.4">
<g opacity="0.4">
<path opacity="0.4" d="M639.848 808.905L709.825 685.264L779.605 808.905H639.848Z" fill="#C7B7D9"/>
</g>
</g>
<path d="M779.61 808.904L849.586 685.264L919.563 808.904H779.61Z" fill="#2BA5EB"/>
<path d="M849.587 685.264L779.61 808.904L709.83 685.264H849.587Z" fill="white"/>
<path d="M430.119 438.18L360.142 561.82L290.362 438.18H430.119Z" fill="white"/>
<path d="M150.406 685.264L220.383 561.82L290.359 685.264H150.406Z" fill="#2BA5EB"/>
<g opacity="0.4">
<g opacity="0.4">
<path opacity="0.4" d="M290.358 685.264L360.139 561.82L430.115 685.264H290.358Z" fill="#C7B7D9"/>
</g>
</g>
<path d="M430.116 685.264L500.093 561.82L569.873 685.264H430.116Z" fill="white"/>
<g opacity="0.4">
<g opacity="0.4">
<path opacity="0.4" d="M569.871 685.264L639.848 561.82L709.824 685.264H569.871Z" fill="#C7B7D9"/>
</g>
</g>
<path d="M709.83 685.264L779.61 561.82L849.587 685.264H709.83Z" fill="#2BA5EB"/>
<path d="M779.609 561.82L709.829 685.264L639.852 561.82H779.609Z" fill="white"/>
<path d="M220.381 561.82L290.358 438.18L360.138 561.82H220.381Z" fill="#2BA5EB"/>
<g opacity="0.4">
<g opacity="0.4">
<path opacity="0.4" d="M360.155 561.819L430.131 438.179L500.108 561.819H360.155Z" fill="#C7B7D9"/>
</g>
</g>
<g opacity="0.4">
<g opacity="0.4">
<path opacity="0.4" d="M500.095 561.819L569.875 438.179L639.852 561.819H500.095Z" fill="#C7B7D9"/>
</g>
</g>
<path d="M639.852 561.82L709.829 438.18L779.609 561.82H639.852Z" fill="#2BA5EB"/>
<path d="M709.837 438.18L639.861 561.82L569.884 438.18H709.837Z" fill="white"/>
<path d="M500.098 314.735L430.122 438.18L360.145 314.735H500.098Z" fill="white"/>
<path d="M290.362 438.18L360.142 314.735L430.119 438.18H290.362Z" fill="#2BA5EB"/>
<g opacity="0.4">
<g opacity="0.4">
<path opacity="0.4" d="M430.13 438.18L500.106 314.735L569.887 438.18H430.13Z" fill="#C7B7D9"/>
</g>
</g>
<path d="M569.884 438.18L639.861 314.735L709.837 438.18H569.884Z" fill="#2BA5EB"/>
<path d="M639.851 314.735L569.875 438.18L500.094 314.735H639.851Z" fill="white"/>
<path d="M360.145 314.736L430.122 191.095L500.098 314.736H360.145Z" fill="#2BA5EB"/>
<path d="M500.094 314.736L569.875 191.095L639.851 314.736H500.094Z" fill="#2BA5EB"/>
<path d="M569.873 191.095L500.093 314.736L430.116 191.095H569.873Z" fill="white"/>
<path d="M430.116 191.096L500.093 67.6515L569.873 191.096H430.116Z" fill="#2BA5EB"/>
</g>
<defs>
<clipPath id="clip0_84_2081">
<rect width="978.692" height="864.697" fill="white" transform="translate(10.6538 67.6516)"/>
</clipPath>
</defs>
</svg>
